Coordinates
version=1
nRows=9
nColumns=36
inDegrees=yes

Units are S.I. units (second, meters, Newtons, ...)
If the header above contains a line with 'inDegrees', this indicates whether rotational values are in degrees (yes) or radians (no).

endheader
time	pelvis_tilt	pelvis_list	pelvis_rotation	pelvis_tx	pelvis_ty	pelvis_tz	hip_flexion_r	hip_adduction_r	hip_rotation_r	knee_angle_r	knee_angle_r_beta	ankle_angle_r	subtalar_angle_r	mtp_angle_r	hip_flexion_l	hip_adduction_l	hip_rotation_l	knee_angle_l	knee_angle_l_beta	ankle_angle_l	subtalar_angle_l	mtp_angle_l	lumbar_extension	lumbar_bending	lumbar_rotation	arm_flex_r	arm_add_r	arm_rot_r	elbow_flex_r	pro_sup_r	arm_flex_l	arm_add_l	arm_rot_l	elbow_flex_l	pro_sup_l
      8.98333330	     -7.92872208	     -8.57545388	      1.37706140	      0.05408390	      0.78218963	      0.00958009	     50.33818032	     -1.80116388	      4.64038165	     13.93656085	      0.24323887	     -1.96484680	    -12.89092326	     -7.49999987	     44.28951852	      3.80161015	      6.87673190	     56.90669652	      0.99320922	     13.63192624	    -17.38680069	     -7.49999987	     -4.24978655	     -4.53626684	      7.69330945	     34.06390895	    -25.52090729	     12.74405248	     74.64645431	     99.15087424	     67.45176015	     -5.54556697	     54.21398364	     48.34654416	     95.83248960
      9.00000000	     -7.95128430	     -8.53022655	      1.26863681	      0.05294012	      0.77962317	      0.00933430	     50.64636446	     -1.92692542	      4.74531261	     13.39991903	      0.23387271	     -3.12795958	    -13.44753444	     -7.49999987	     44.85337333	      3.89634968	      6.80660534	     57.45107390	      1.00271040	     10.88417597	    -19.22921276	     -7.49999987	     -4.36561793	     -4.61225801	      7.59136661	     35.04170123	    -25.37719888	     13.26621298	     73.96797977	     99.30096817	     67.31656689	     -5.45464347	     53.47023395	     48.36482076	     95.78266709
      9.01666670	     -7.97556216	     -8.51010177	      1.87802793	      0.05219083	      0.77721191	      0.00928745	     50.26909577	     -2.45470929	      4.72296364	     11.91209753	      0.20790532	     -3.70939184	    -12.93526273	     -7.49999987	     42.06544058	      4.09632806	      6.93347810	     58.08453707	      1.01376642	     21.65612984	    -14.75013458	     -7.49999987	     -4.24781719	     -4.78028375	      6.86990687	     35.63779031	    -24.97098391	     13.31023240	     73.20287264	     99.43895548	     67.32192927	     -5.46530702	     53.21586875	     48.26727218	     96.05826540
      9.03333330	     -9.09386635	     -4.59285376	      0.99021100	      0.04763634	      0.77375218	      0.01006748	     52.49754426	     -4.12982085	      3.78534844	     14.83648785	      0.25894556	     -1.48308772	     -5.00736838	     -7.49999987	     49.72325405	      9.65316171	      8.34258847	     54.59151244	      0.95280164	    -19.54913159	    -31.15510831	     -7.49999987	     -3.35603312	     -7.42288269	      2.30729194	     42.91209977	    -19.53643702	     20.72069573	     66.16592477	    100.77641041	     63.97847111	    -12.95319159	     47.28291378	     55.33384345	     97.63546231
      9.05000000	     -8.01164218	     -5.34600817	      1.06813458	      0.04591660	      0.77177650	      0.01137033	     54.01539320	     -3.44319342	      2.56202397	     14.15376707	      0.24702984	     -1.17990711	     -5.45587673	     -7.49999987	     47.37503713	      7.48061570	      6.67589113	     53.98528257	      0.94222093	      0.09316151	    -22.00381615	     -7.49999987	     -4.01215742	     -6.26700404	      1.22437536	     46.31430752	    -18.12537009	     23.99600264	     61.62905662	     99.82178808	     64.02302087	    -13.74750036	     46.41333518	     54.25355123	     98.61413201
      9.06666670	     -8.56293579	     -7.19325687	      1.07077228	      0.04511626	      0.76910499	      0.01183782	     54.75201890	     -2.68074858	      4.01175544	     15.73006693	      0.27454146	     -2.34222518	     -9.25479149	     -7.49999987	     47.75332007	      6.12014632	      8.20411464	     55.57393894	      0.96994821	     -3.86777565	    -25.80119220	     -7.49999987	     -3.78565305	     -4.83141867	      2.23757020	     46.04278250	    -19.70411268	     23.33053673	     62.85331448	     99.47214857	     65.05337118	    -11.63983232	     46.59225813	     52.77867204	     98.77890360
      9.08333330	     -7.65509295	     -8.45726602	      1.75598800	      0.04702514	      0.76604041	      0.01160958	     51.61883113	     -2.29357414	      4.46215568	     12.28260566	      0.21437191	     -1.65994025	    -10.19328247	     -7.49999987	     40.46471212	      3.36796758	      7.02530283	     58.90110404	      1.02801820	     27.20084836	     -8.96123705	     -7.49999987	     -3.94833372	     -3.25321307	      1.65270962	     47.19078976	    -19.50235656	     24.86445152	     61.01951627	     96.85727378	     65.17328306	    -11.40046606	     47.04337672	     51.16817014	     96.05398824
      9.10000000	     -6.53470270	     -8.98075489	      0.78844008	      0.04671235	      0.76085710	      0.01276229	     52.29722328	     -1.87385909	      4.39773417	     14.07564757	      0.24566639	     -1.05151278	    -10.19027652	     -7.49999987	     40.96786494	      2.35442895	      5.37527944	     60.78189936	      1.06084427	     27.31773793	     -7.89897350	     -7.49999987	     -5.58310879	     -2.65695934	      2.66030985	     49.01408189	    -20.16287539	     25.97784878	     61.44555539	     97.50576886	     66.15983241	    -11.22648068	     46.38897464	     51.65526152	     96.50649701
      9.11666670	    -10.96987032	    -10.63353189	      2.70885214	      0.04310600	      0.76363399	      0.01245260	     54.74575863	     -0.77154448	      0.16039311	     16.30493692	      0.28457483	      5.56441725	    -11.29925195	     -7.49999987	     39.29360780	     -4.19418794	      4.15201008	     64.41121723	      1.12418782	     47.56309345	      7.89693586	     -7.49999987	     -1.90488303	     -1.88820437	      2.42200476	     44.78241140	    -21.62907412	     20.38876772	     65.32081231	    100.20419632	     65.75532673	     -8.53348024	     45.60974251	     51.03603241	     99.51963067
